PathFileType	4	(X/Y/Z)	./resultDataOpenSim/trcMotMarkerGrf/sub10/qtm-05-05.trc
DataRate	CameraRate	NumFrames	NumMarkers	Units	OrigDataRate	OrigDataStartFrame	OrigNumFrames
250.000000	250.000000	12	24	m	250.000000	194	517
Frame#	Time	L.Toe.Tip			R.Toe.Tip			L.Ankle.Lat			R.Ankle.Lat			L.Ankle.Med			R.Ankle.Med			L.Heel			R.Heel			L.Knee.Lat			R.Knee.Lat			L.Knee.Med			R.Knee.Med			L.Thigh.Upper			R.Thigh.Upper			L.ASIS			R.ASIS			V.Sacral			L.Acromium			R.Acromium			C7			L.Elbow			R.Elbow			L.Wrist.Lat			R.Wrist.Lat
		X1	Y1	Z1	X2	Y2	Z2	X3	Y3	Z3	X4	Y4	Z4	X5	Y5	Z5	X6	Y6	Z6	X7	Y7	Z7	X8	Y8	Z8	X9	Y9	Z9	X10	Y10	Z10	X11	Y11	Z11	X12	Y12	Z12	X13	Y13	Z13	X14	Y14	Z14	X15	Y15	Z15	X16	Y16	Z16	X17	Y17	Z17	X18	Y18	Z18	X19	Y19	Z19	X20	Y20	Z20	X21	Y21	Z21	X22	Y22	Z22	X23	Y23	Z23	X24	Y24	Z24

194	0.772	0.0034976295	-0.057812317	-0.092080865	-0.72677264	0.038599282	0.02765823	-0.12898435	-0.024264258	-0.14829353	-0.82846276	0.1351973	0.049979683	-0.13421623	-0.0026956433	-0.064992011	-0.78232069	0.13265545	-0.026778852	-0.1959476	-0.049512332	-0.11418575	-0.87485227	0.14112783	-0.0072072645	-0.11474221	0.3644064	-0.16032014	-0.51285849	0.37871095	0.092493294	-0.11603656	0.33980832	-0.039898454	-0.46869657	0.35870331	-0.025773041	-0.20109801	0.74334755	-0.20973556	-0.38082888	0.75348477	0.14167439	-0.17980603	0.8437527	-0.12003202	-0.26551439	0.83151832	0.11022878	-0.4141286	0.85728505	-0.080790649	-0.29841135	1.3022807	-0.20324609	-0.33890137	1.3178612	0.11665682	-0.40066607	1.3314969	-0.059157091	-0.44858139	1.0026885	-0.26328712	-0.33127181	0.96120159	0.16587667	-0.40946878	0.76755527	-0.30023695	-0.10839796	0.85992983	0.20138708
195	0.776	0.0033640931	-0.057889488	-0.092003361	-0.72571633	0.038411069	0.02752694	-0.12876105	-0.025211643	-0.14851623	-0.82218238	0.14003433	0.050074316	-0.13532684	-0.003741107	-0.065213142	-0.77561214	0.13549206	-0.025805146	-0.19602169	-0.050366762	-0.11501604	-0.86768226	0.14749743	-0.0075385408	-0.10916134	0.36324519	-0.15992893	-0.50248468	0.37657122	0.093372452	-0.11261101	0.3383546	-0.039584029	-0.45801358	0.35547139	-0.024438086	-0.19397024	0.74304085	-0.21047199	-0.37292353	0.7511751	0.14159449	-0.17331983	0.84247236	-0.12060717	-0.25783252	0.82977172	0.10916193	-0.409167	0.85701146	-0.079830226	-0.2914346	1.3007761	-0.20425605	-0.3327599	1.316703	0.11584623	-0.39410064	1.3301638	-0.060295293	-0.44049024	1.0009571	-0.26420715	-0.32590128	0.95979376	0.16385754	-0.40274102	0.76566948	-0.30116695	-0.10505537	0.85661086	0.20327514
196	0.78	0.0032763697	-0.057957965	-0.091918567	-0.72458284	0.038199407	0.027445072	-0.12846917	-0.026004102	-0.14864449	-0.81512643	0.14502819	0.050105177	-0.13616618	-0.0045745514	-0.065445119	-0.76832299	0.13829079	-0.024789504	-0.19605925	-0.051035349	-0.11573661	-0.85941585	0.15407679	-0.008046808	-0.10359616	0.36221609	-0.1595414	-0.4916474	0.37433733	0.094421083	-0.10931625	0.33708943	-0.039368078	-0.44683167	0.3519883	-0.022926653	-0.18702789	0.74288368	-0.21119149	-0.36501743	0.74885337	0.14155484	-0.16696321	0.84129065	-0.12120778	-0.25039464	0.82808001	0.10813453	-0.40391986	0.85648005	-0.079013253	-0.28446004	1.2993608	-0.20525639	-0.32659217	1.3156136	0.11507183	-0.38748474	1.3289963	-0.061399374	-0.432343	0.99924995	-0.26498502	-0.32073065	0.95860306	0.16223298	-0.39585926	0.76387046	-0.30205842	-0.10190212	0.85323139	0.20527607
197	0.784	0.0032518875	-0.058022174	-0.091832789	-0.72344207	0.037952971	0.027406435	-0.12809753	-0.026661077	-0.14863715	-0.80745775	0.15009507	0.050079209	-0.13659201	-0.005218673	-0.065560654	-0.76042523	0.14101215	-0.023728154	-0.19607328	-0.051584682	-0.11624064	-0.85012142	0.16085017	-0.0086815391	-0.098100869	0.36127124	-0.15913405	-0.48041875	0.37205278	0.0957025	-0.10613924	0.33601071	-0.039254938	-0.43523742	0.34827841	-0.021133001	-0.18028827	0.74283978	-0.21188597	-0.35709277	0.7465155	0.14150949	-0.16073509	0.84022484	-0.12183442	-0.24316681	0.82645415	0.10711998	-0.39843954	0.85572005	-0.078273798	-0.27746201	1.2980447	-0.20623064	-0.32037006	1.3145888	0.11431643	-0.38082239	1.3279898	-0.062465986	-0.42409247	0.99759388	-0.26585283	-0.31576481	0.95760336	0.16087169	-0.38881913	0.76216363	-0.30289026	-0.09893206	0.84982157	0.20735372
198	0.788	0.003279727	-0.058082392	-0.091745582	-0.72232757	0.037670168	0.027390001	-0.12769282	-0.027198373	-0.14847321	-0.79936701	0.15509681	0.050058411	-0.13663934	-0.0057064825	-0.065479709	-0.75197513	0.14367309	-0.022632094	-0.19608582	-0.052030493	-0.11645266	-0.84011272	0.16771986	-0.0092734454	-0.092734576	0.36038382	-0.15870131	-0.46889311	0.36976019	0.097258129	-0.10310779	0.33509601	-0.039261557	-0.42325648	0.34436429	-0.019009272	-0.17375988	0.74286875	-0.21255617	-0.34918631	0.74416539	0.14145694	-0.15463555	0.83928571	-0.1224843	-0.23606015	0.82490704	0.10605807	-0.39266549	0.854753	-0.077674064	-0.27043245	1.296828	-0.20715955	-0.31405476	1.3136295	0.11356264	-0.37412533	1.3271292	-0.063493025	-0.41569386	0.99602867	-0.26700188	-0.31098364	0.95677012	0.15968554	-0.38161512	0.76055233	-0.30365397	-0.096126848	0.84641048	0.20946235
199	0.792	0.0033430901	-0.05813913	-0.091654461	-0.72112039	0.037417024	0.027358706	-0.12730896	-0.027621661	-0.1481725	-0.79089596	0.15992838	0.050144109	-0.13645569	-0.0060862212	-0.065204148	-0.74306491	0.14626827	-0.021512891	-0.19610073	-0.052369011	-0.11638636	-0.82968563	0.17457882	-0.009609734	-0.087545013	0.35955023	-0.15825634	-0.45712547	0.36743867	0.099030119	-0.10016706	0.33432249	-0.039346782	-0.41079704	0.3402493	-0.01672022	-0.16746102	0.74293645	-0.21321169	-0.34137333	0.7418108	0.14143012	-0.14867281	0.83847771	-0.12315911	-0.22904294	0.82344303	0.10492484	-0.38668451	0.85366811	-0.077199775	-0.26338088	1.2957067	-0.20803478	-0.30764644	1.3127432	0.11280584	-0.36740596	1.3263939	-0.06448077	-0.40722456	0.99456591	-0.26825187	-0.30632847	0.9560635	0.15864489	-0.37424005	0.75903978	-0.30435456	-0.093478872	0.84301566	0.2115793
200	0.796	0.0034300915	-0.058196487	-0.091558243	-0.71955225	0.037362779	0.027253017	-0.12696261	-0.027934812	-0.14778266	-0.78200582	0.16456723	0.050397464	-0.13618289	-0.0063997616	-0.064790101	-0.73378923	0.14879526	-0.020396132	-0.19610779	-0.052602427	-0.11612588	-0.81897443	0.18140159	-0.0094976282	-0.082568076	0.35877207	-0.15781958	-0.44513845	0.36502605	0.10089867	-0.097174634	0.33368473	-0.039410337	-0.39775727	0.33594265	-0.014541037	-0.16142244	0.74301858	-0.21386564	-0.33373448	0.73946668	0.14148255	-0.14285667	0.83780025	-0.12386403	-0.22214159	0.82206282	0.10374204	-0.38067021	0.8525603	-0.076772303	-0.25632034	1.2946853	-0.20885656	-0.30117686	1.3119321	0.11205105	-0.36066985	1.325762	-0.065435726	-0.39881631	0.99318835	-0.26926422	-0.30171917	0.95543631	0.15773875	-0.36669018	0.75763145	-0.30499409	-0.090988398	0.83964695	0.21369912
201	0.8	0.0035289435	-0.05825732	-0.091458994	-0.71736128	0.037742481	0.027028316	-0.12663689	-0.028152748	-0.14735542	-0.77270925	0.16905493	0.050805011	-0.13591139	-0.0066564482	-0.064328388	-0.72422158	0.15132595	-0.019325321	-0.19609892	-0.052745987	-0.11578274	-0.80807933	0.18822727	-0.0088274196	-0.077836729	0.35804979	-0.15741766	-0.43296604	0.36248867	0.10278885	-0.094057446	0.33318177	-0.03939655	-0.38416991	0.33148204	-0.012585813	-0.15567081	0.74309707	-0.2145275	-0.32635141	0.73716387	0.1416797	-0.13719003	0.83725698	-0.12460639	-0.21539097	0.82077194	0.10254852	-0.37473579	0.85146847	-0.076330052	-0.24925148	1.2937773	-0.2096237	-0.29466895	1.3111942	0.11130638	-0.35391634	1.325219	-0.066376284	-0.39048794	0.99189611	-0.27001085	-0.29712159	0.95487521	0.15695929	-0.35897117	0.75633503	-0.30555744	-0.088636785	0.83631785	0.21580877
202	0.804	0.0036233124	-0.058317958	-0.091364025	-0.7144533	0.038752576	0.026711072	-0.12631372	-0.028306174	-0.14693964	-0.76302493	0.17347232	0.051307467	-0.13568133	-0.0068462815	-0.063917027	-0.71439763	0.15398334	-0.018335537	-0.19607584	-0.052821532	-0.11546218	-0.79704829	0.1950656	-0.0077262242	-0.073388673	0.35737555	-0.15707726	-0.42065032	0.3598427	0.10468502	-0.090852801	0.33279914	-0.039318553	-0.37017192	0.32691442	-0.010762353	-0.15022003	0.74315753	-0.2152045	-0.3192718	0.73494738	0.14204289	-0.13166788	0.83685647	-0.12539419	-0.20881716	0.81958655	0.10137871	-0.3688719	0.85038204	-0.075835737	-0.2421679	1.2929979	-0.21033475	-0.28813027	1.3105351	0.11058104	-0.34715988	1.3247656	-0.067312764	-0.38217783	0.99070667	-0.27071015	-0.29256127	0.95441089	0.15630612	-0.35109025	0.75515642	-0.30602403	-0.086382508	0.83305196	0.21788822
203	0.808	0.0036974722	-0.058372536	-0.091283146	-0.7109096	0.040446405	0.026383372	-0.12599539	-0.02842965	-0.14658092	-0.75289618	0.17790429	0.051854179	-0.13548525	-0.0069722937	-0.063616204	-0.70432101	0.15685595	-0.017434041	-0.19604838	-0.052843831	-0.11523642	-0.78566545	0.20185143	-0.0065715003	-0.06926062	0.35673196	-0.15681699	-0.40821839	0.35714665	0.10657602	-0.087595671	0.33251869	-0.039187012	-0.3558917	0.32231834	-0.0089470488	-0.14507655	0.74318882	-0.21591126	-0.31237511	0.73283614	0.14241116	-0.12628047	0.83659758	-0.12622933	-0.20243578	0.81853133	0.10025505	-0.36285956	0.84925912	-0.075287178	-0.23507024	1.2923528	-0.21099046	-0.2815733	1.3099647	0.10987894	-0.34045503	1.324409	-0.068213764	-0.37387212	0.98962256	-0.27149055	-0.28807727	0.95408345	0.1557833	-0.34303852	0.75409748	-0.30639291	-0.084210299	0.82987533	0.2199289
204	0.812	0.0037443476	-0.05841959	-0.091220985	-0.70685882	0.042710356	0.026115396	-0.1257007	-0.028542851	-0.14631047	-0.74228935	0.18238555	0.05243596	-0.13529529	-0.0070479085	-0.063431077	-0.69397576	0.15995173	-0.016601631	-0.19602813	-0.052817591	-0.11512959	-0.77358246	0.20849334	-0.005688153	-0.065460526	0.35611045	-0.15664076	-0.39568514	0.35449893	0.10843707	-0.08424002	0.33233694	-0.038967963	-0.34142468	0.31787947	-0.0071154268	-0.14024316	0.74318334	-0.21667256	-0.30526112	0.73077467	0.14235452	-0.12102065	0.83646586	-0.12710631	-0.19625288	0.81763339	0.099190749	-0.35622902	0.84805852	-0.074774312	-0.22796419	1.2918351	-0.21158803	-0.27501752	1.3094876	0.10919691	-0.33386463	1.3241543	-0.069033074	-0.36561615	0.98863227	-0.27229874	-0.28368803	0.9539103	0.15538674	-0.33478579	0.7531584	-0.30669241	-0.082193899	0.82680406	0.22194267
205	0.816	0.0037663911	-0.058460406	-0.091175437	-0.7023342	0.045367391	0.025939268	-0.12544576	-0.028644202	-0.14613435	-0.73127818	0.18689842	0.053064409	-0.13509539	-0.0070791287	-0.06333459	-0.68333371	0.16321386	-0.015812124	-0.19602195	-0.052747939	-0.11512353	-0.76072006	0.21494337	-0.0051037047	-0.061959679	0.35551904	-0.15653559	-0.3830596	0.35200561	0.11022965	-0.080697957	0.33225736	-0.038611617	-0.32685687	0.31387097	-0.00534391	-0.13571416	0.74313812	-0.21750562	-0.29753086	0.72868988	0.14152251	-0.11588656	0.83644771	-0.12801516	-0.1902732	0.81692428	0.098197746	-0.34858527	0.84682006	-0.074547164	-0.22085432	1.2914344	-0.21211789	-0.26847342	1.3091096	0.10853133	-0.32739191	1.324008	-0.069777146	-0.35745012	0.98773208	-0.27303922	-0.27938119	0.95388309	0.15509141	-0.32630066	0.75233891	-0.30696641	-0.080457341	0.82384378	0.22394996
